<svg width="57" height="56" viewBox="0 0 57 56" fill="none" xmlns="http://www.w3.org/2000/svg">
<path d="M14.4157 7.66763C11.8978 7.66763 9.83331 9.73214 9.83331 12.25V49.6676C9.83331 52.1855 11.8978 54.25 14.4157 54.25H42.5843C45.1021 54.25 47.1666 52.1855 47.1666 49.6676V12.25C47.1666 9.73214 45.1021 7.66763 42.5843 7.66763H41.3333C41.0239 7.66763 40.7271 7.79055 40.5083 8.00934C40.2896 8.22813 40.1666 8.52488 40.1666 8.8343C40.1666 9.14372 40.2896 9.44047 40.5083 9.65926C40.7271 9.87805 41.0239 10.001 41.3333 10.001H42.5843C43.8498 10.001 44.8333 10.9844 44.8333 12.25V49.6676C44.8333 50.9332 43.8498 51.9166 42.5843 51.9166H14.4157C13.1501 51.9166 12.1666 50.9332 12.1666 49.6676V12.25C12.1666 10.9844 13.1501 10.001 14.4157 10.001H15.6666C15.9761 10.001 16.2728 9.87805 16.4916 9.65926C16.7104 9.44047 16.8333 9.14372 16.8333 8.8343C16.8333 8.52488 16.7104 8.22813 16.4916 8.00934C16.2728 7.79055 15.9761 7.66763 15.6666 7.66763H14.4157Z" fill="#98A2B3"/>
<path d="M24.1911 5.25H20.9167C20.2724 5.25007 19.7501 5.77236 19.75 6.41667V11.0833C19.7501 11.7276 20.2724 12.2499 20.9167 12.25H28.4339H28.5661H36.0833C36.7276 12.2499 37.2499 11.7276 37.25 11.0833V6.41667C37.2499 5.77236 36.7276 5.25007 36.0833 5.25H32.8089C32.3649 3.27225 30.6715 1.75 28.5 1.75C26.3285 1.75 24.6351 3.27225 24.1911 5.25ZM28.5 4.08333C29.7493 4.08333 30.667 5.00106 30.667 6.18424C30.667 7.147 31.0215 7.58333 31.8337 7.58333H34.9167V9.91667H28.5661H28.4339H22.0833V7.58333H25.1663C26.26 7.58333 26.333 6.89543 26.333 6.18424C26.333 5.00106 27.2507 4.08333 28.5 4.08333Z" fill="#7F56D9"/>
<path d="M22.9879 18.4456L20.4108 21.1527L18.7497 19.7559C18.2562 19.3421 17.5209 19.4064 17.1068 19.8994C16.693 20.3928 16.7573 21.1281 17.2503 21.5423L19.75 23.6432C20.2218 24.0393 20.9202 24.0004 21.345 23.5543L24.6787 20.0543C25.123 19.5875 25.1047 18.8488 24.6377 18.4046C24.1275 17.9663 23.4817 17.9517 22.9879 18.4456Z" fill="#7F56D9"/>
<path d="M28.5 20.4167C28.1906 20.4167 27.8938 20.5396 27.675 20.7584C27.4562 20.9772 27.3333 21.2739 27.3333 21.5833C27.3333 21.8928 27.4562 22.1895 27.675 22.4083C27.8938 22.6271 28.1906 22.75 28.5 22.75H40.1666C40.4761 22.75 40.7728 22.6271 40.9916 22.4083C41.2104 22.1895 41.3333 21.8928 41.3333 21.5833C41.3333 21.2739 41.2104 20.9772 40.9916 20.7584C40.7728 20.5396 40.4761 20.4167 40.1666 20.4167H28.5Z" fill="#7F56D9"/>
<path d="M22.9879 27.779L20.4108 30.486L18.7497 29.0892C18.2562 28.6755 17.5209 28.7397 17.1068 29.2327C16.693 29.7262 16.7573 30.4615 17.2503 30.8756L19.75 32.9766C20.2218 33.3726 20.9202 33.3337 21.345 32.8877L24.6787 29.3877C25.123 28.9208 25.1047 28.1821 24.6377 27.738C24.0955 27.268 23.463 27.3132 22.9879 27.779Z" fill="#7F56D9"/>
<path d="M28.5 29.75C28.1906 29.75 27.8938 29.8729 27.675 30.0917C27.4562 30.3105 27.3333 30.6072 27.3333 30.9167C27.3333 31.2261 27.4562 31.5228 27.675 31.7416C27.8938 31.9604 28.1906 32.0833 28.5 32.0833H40.1666C40.4761 32.0833 40.7728 31.9604 40.9916 31.7416C41.2104 31.5228 41.3333 31.2261 41.3333 30.9167C41.3333 30.6072 41.2104 30.3105 40.9916 30.0917C40.7728 29.8729 40.4761 29.75 40.1666 29.75H28.5Z" fill="#7F56D9"/>
<path d="M22.9879 37.1123L20.4108 39.8193L18.7497 38.4225C18.2562 38.0088 17.5209 38.0731 17.1068 38.5661C16.693 39.0595 16.7573 39.7948 17.2503 40.209L19.75 42.3099C20.2218 42.706 20.9202 42.667 21.345 42.221L24.6787 38.721C25.123 38.2542 25.1047 37.5155 24.6377 37.0713C24.122 36.5921 23.4359 36.6643 22.9879 37.1123Z" fill="#7F56D9"/>
<path d="M28.5 39.0833C28.1906 39.0833 27.8938 39.2062 27.675 39.425C27.4562 39.6438 27.3333 39.9406 27.3333 40.25C27.3333 40.5594 27.4562 40.8561 27.675 41.0749C27.8938 41.2937 28.1906 41.4166 28.5 41.4166H40.1666C40.4761 41.4166 40.7728 41.2937 40.9916 41.0749C41.2104 40.8561 41.3333 40.5594 41.3333 40.25C41.3333 39.9406 41.2104 39.6438 40.9916 39.425C40.7728 39.2062 40.4761 39.0833 40.1666 39.0833H28.5Z" fill="#7F56D9"/>
</svg>
